<svg width="15" height="16" viewBox="0 0 15 16" fill="none" xmlns="http://www.w3.org/2000/svg">
<path d="M8.60481 9.22468V10.4933C8.22497 10.359 7.81629 10.286 7.39049 10.286C5.37854 10.286 3.74752 11.917 3.74752 13.929H2.5332C2.5332 11.2463 4.70788 9.07168 7.39049 9.07168C7.8098 9.07168 8.21671 9.12481 8.60481 9.22468ZM7.39049 8.46452C5.37775 8.46452 3.74752 6.83429 3.74752 4.82155C3.74752 2.80882 5.37775 1.17859 7.39049 1.17859C9.40323 1.17859 11.0335 2.80882 11.0335 4.82155C11.0335 6.83429 9.40323 8.46452 7.39049 8.46452ZM7.39049 7.2502C8.73232 7.2502 9.81913 6.16338 9.81913 4.82155C9.81913 3.47973 8.73232 2.39291 7.39049 2.39291C6.04866 2.39291 4.96185 3.47973 4.96185 4.82155C4.96185 6.16338 6.04866 7.2502 7.39049 7.2502ZM10.9077 12.6626L13.0543 10.5159L13.913 11.3746L10.9077 14.3798L8.76109 12.2332L9.61974 11.3746L10.9077 12.6626Z" fill="#808080"/>
</svg>
