<svg width="16" height="16" viewBox="0 0 16 16" fill="none" xmlns="http://www.w3.org/2000/svg">
<g clip-path="url(#clip0_129_2004)">
<path d="M9.0843 9.22792V10.4966C8.70446 10.3624 8.29578 10.2893 7.86998 10.2893C5.85803 10.2893 4.22702 11.9205 4.22702 13.9326H3.0127C3.0127 11.2498 5.18738 9.07491 7.86998 9.07491C8.28929 9.07491 8.69621 9.12804 9.0843 9.22792ZM7.86998 8.4677C5.85724 8.4677 4.22702 6.83733 4.22702 4.82442C4.22702 2.81152 5.85724 1.18115 7.86998 1.18115C9.88272 1.18115 11.5129 2.81152 11.5129 4.82442C11.5129 6.83733 9.88272 8.4677 7.86998 8.4677ZM7.86998 7.25327C9.21181 7.25327 10.2986 6.16636 10.2986 4.82442C10.2986 3.48249 9.21181 2.39558 7.86998 2.39558C6.52816 2.39558 5.44134 3.48249 5.44134 4.82442C5.44134 6.16636 6.52816 7.25327 7.86998 7.25327Z" fill="#808080"/>
<path d="M12.2416 14.4745C13.4797 14.4745 14.4834 13.4707 14.4834 12.2325C14.4834 10.9943 13.4797 9.99048 12.2416 9.99048C11.0035 9.99048 9.99976 10.9943 9.99976 12.2325C9.99976 13.4707 11.0035 14.4745 12.2416 14.4745Z" stroke="#808080" stroke-width="4" stroke-linecap="round" stroke-linejoin="round"/>
<path d="M10.655 13.8191L13.8281 10.6458" stroke="#808080" stroke-width="4" stroke-linecap="round" stroke-linejoin="round"/>
</g>
<defs>
<clipPath id="clip0_129_2004">
<rect width="14.5719" height="14.5731" fill="white" transform="translate(0.583984 0.573975)"/>
</clipPath>
</defs>
</svg>
