<svg width="16" height="16" viewBox="0 0 16 16" fill="none" xmlns="http://www.w3.org/2000/svg">
<path d="M9.0843 9.22707V10.4958C8.70446 10.3615 8.29578 10.2885 7.86998 10.2885C5.85803 10.2885 4.22702 11.9196 4.22702 13.9317H3.0127C3.0127 11.2489 5.18738 9.07405 7.86998 9.07405C8.28929 9.07405 8.69621 9.12718 9.0843 9.22707ZM7.86998 8.46684C5.85724 8.46684 4.22702 6.83648 4.22702 4.82357C4.22702 2.81066 5.85724 1.1803 7.86998 1.1803C9.88272 1.1803 11.5129 2.81066 11.5129 4.82357C11.5129 6.83648 9.88272 8.46684 7.86998 8.46684ZM7.86998 7.25242C9.21181 7.25242 10.2986 6.16551 10.2986 4.82357C10.2986 3.48163 9.21181 2.39472 7.86998 2.39472C6.52816 2.39472 5.44134 3.48163 5.44134 4.82357C5.44134 6.16551 6.52816 7.25242 7.86998 7.25242Z" fill="#808080"/>
<g clip-path="url(#clip0_129_1628)">
<path fill-rule="evenodd" clip-rule="evenodd" d="M12.2415 14.0533C12.3519 14.0533 12.4578 14.0971 12.5359 14.1752C12.614 14.2533 12.6579 14.3592 12.6579 14.4697C12.6579 14.5801 12.614 14.686 12.5359 14.7641C12.4578 14.8422 12.3519 14.886 12.2415 14.886C12.1311 14.886 12.0252 14.8422 11.9471 14.7641C11.869 14.686 11.8252 14.5801 11.8252 14.4697C11.8252 14.3592 11.869 14.2533 11.9471 14.1752C12.0252 14.0971 12.1311 14.0533 12.2415 14.0533ZM10.9386 13.4287C11.0766 13.4287 11.209 13.4836 11.3066 13.5812C11.4042 13.6788 11.459 13.8112 11.459 13.9492C11.459 14.0872 11.4042 14.2196 11.3066 14.3172C11.209 14.4148 11.0766 14.4697 10.9386 14.4697C10.8006 14.4697 10.6682 14.4148 10.5706 14.3172C10.473 14.2196 10.4182 14.0872 10.4182 13.9492C10.4182 13.8112 10.473 13.6788 10.5706 13.5812C10.6682 13.4836 10.8006 13.4287 10.9386 13.4287ZM13.3488 13.5328C13.4592 13.5328 13.5651 13.5767 13.6432 13.6548C13.7213 13.7329 13.7651 13.8388 13.7651 13.9492C13.7651 14.0596 13.7213 14.1655 13.6432 14.2436C13.5651 14.3217 13.4592 14.3656 13.3488 14.3656C13.2384 14.3656 13.1325 14.3217 13.0544 14.2436C12.9763 14.1655 12.9324 14.0596 12.9324 13.9492C12.9324 13.8388 12.9763 13.7329 13.0544 13.6548C13.1325 13.5767 13.2384 13.5328 13.3488 13.5328ZM13.8028 12.6624C13.8856 12.6624 13.965 12.6953 14.0236 12.7538C14.0822 12.8124 14.115 12.8918 14.115 12.9747C14.115 13.0575 14.0822 13.1369 14.0236 13.1955C13.965 13.254 13.8856 13.2869 13.8028 13.2869C13.72 13.2869 13.6406 13.254 13.582 13.1955C13.5234 13.1369 13.4905 13.0575 13.4905 12.9747C13.4905 12.8918 13.5234 12.8124 13.582 12.7538C13.6406 12.6953 13.72 12.6624 13.8028 12.6624ZM10.4721 11.9714C10.6101 11.9714 10.7425 12.0262 10.8401 12.1239C10.9377 12.2215 10.9925 12.3538 10.9925 12.4919C10.9925 12.6299 10.9377 12.7623 10.8401 12.8599C10.7425 12.9575 10.6101 13.0123 10.4721 13.0123C10.3341 13.0123 10.2017 12.9575 10.1041 12.8599C10.0065 12.7623 9.95166 12.6299 9.95166 12.4919C9.95166 12.3538 10.0065 12.2215 10.1041 12.1239C10.2017 12.0262 10.3341 11.9714 10.4721 11.9714ZM13.6542 11.8063C13.7094 11.8063 13.7623 11.8283 13.8014 11.8673C13.8404 11.9063 13.8623 11.9593 13.8623 12.0145C13.8623 12.0697 13.8404 12.1227 13.8014 12.1617C13.7623 12.2008 13.7094 12.2227 13.6542 12.2227C13.599 12.2227 13.546 12.2008 13.507 12.1617C13.4679 12.1227 13.446 12.0697 13.446 12.0145C13.446 11.9593 13.4679 11.9063 13.507 11.8673C13.546 11.8283 13.599 11.8063 13.6542 11.8063ZM11.617 10.7223C11.7826 10.7223 11.9415 10.7881 12.0586 10.9052C12.1757 11.0223 12.2415 11.1812 12.2415 11.3469C12.2415 11.5125 12.1757 11.6714 12.0586 11.7885C11.9415 11.9056 11.7826 11.9714 11.617 11.9714C11.4514 11.9714 11.2925 11.9056 11.1754 11.7885C11.0583 11.6714 10.9925 11.5125 10.9925 11.3469C10.9925 11.1812 11.0583 11.0223 11.1754 10.9052C11.2925 10.7881 11.4514 10.7223 11.617 10.7223ZM13.1783 11.3469C13.2059 11.3469 13.2324 11.3578 13.2519 11.3773C13.2714 11.3969 13.2824 11.4233 13.2824 11.4509C13.2824 11.4786 13.2714 11.505 13.2519 11.5245C13.2324 11.5441 13.2059 11.555 13.1783 11.555C13.1507 11.555 13.1242 11.5441 13.1047 11.5245C13.0852 11.505 13.0742 11.4786 13.0742 11.4509C13.0742 11.4233 13.0852 11.3969 13.1047 11.3773C13.1242 11.3578 13.1507 11.3469 13.1783 11.3469Z" fill="#808080"/>
</g>
<defs>
<clipPath id="clip0_129_1628">
<rect width="4.16339" height="4.16374" fill="white" transform="translate(9.95166 10.7223)"/>
</clipPath>
</defs>
</svg>
