<svg width="16" height="16" viewBox="0 0 16 16" fill="none" xmlns="http://www.w3.org/2000/svg">
<g clip-path="url(#clip0_129_1977)">
<path d="M9.34456 9.22744V10.4961C8.96472 10.3619 8.55604 10.2888 8.13024 10.2888C6.11828 10.2888 4.48727 11.92 4.48727 13.9321H3.27295C3.27295 11.2493 5.44763 9.07442 8.13024 9.07442C8.54954 9.07442 8.95646 9.12755 9.34456 9.22744ZM8.13024 8.46721C6.1175 8.46721 4.48727 6.83684 4.48727 4.82394C4.48727 2.81103 6.1175 1.18066 8.13024 1.18066C10.143 1.18066 11.7732 2.81103 11.7732 4.82394C11.7732 6.83684 10.143 8.46721 8.13024 8.46721ZM8.13024 7.25278C9.47206 7.25278 10.5589 6.16587 10.5589 4.82394C10.5589 3.482 9.47206 2.39509 8.13024 2.39509C6.78841 2.39509 5.70159 3.482 5.70159 4.82394C5.70159 6.16587 6.78841 7.25278 8.13024 7.25278Z" fill="#808080"/>
<g clip-path="url(#clip1_129_1977)">
<path d="M11.0178 11.0912H13.0486C13.1927 11.0912 13.2652 11.0912 13.3184 11.12C13.3652 11.1454 13.4021 11.1857 13.4234 11.2345C13.4475 11.2899 13.4413 11.3614 13.4289 11.505L13.238 13.7326C13.217 13.979 13.2065 14.1023 13.1517 14.1954C13.1035 14.2775 13.0318 14.3433 12.9458 14.3843C12.8483 14.4308 12.7247 14.4308 12.4776 14.4308H11.5891C11.3417 14.4308 11.2184 14.4308 11.1206 14.3843C11.0347 14.3433 10.963 14.2775 10.9148 14.1954C10.8602 14.1023 10.8497 13.9788 10.8284 13.7326L10.6376 11.5053C10.6252 11.3617 10.6192 11.2899 10.6433 11.2343C10.6647 11.1855 10.7016 11.1453 10.7483 11.1198C10.8015 11.0912 10.8735 11.0912 11.0178 11.0912ZM11.0178 11.0912H10.781C10.5663 11.0912 10.459 11.0912 10.3967 11.0463C10.3694 11.0267 10.3466 11.0015 10.3298 10.9724C10.3129 10.9434 10.3024 10.9111 10.2989 10.8777C10.2908 10.8013 10.3442 10.7078 10.4508 10.5213C10.5305 10.3817 10.5703 10.3118 10.6264 10.261C10.6764 10.2155 10.7355 10.1812 10.7998 10.1603C10.8714 10.137 10.952 10.137 11.1125 10.137H12.9539C13.1147 10.137 13.1949 10.137 13.2669 10.1603C13.3313 10.1811 13.3902 10.2154 13.4401 10.261C13.4961 10.3118 13.536 10.3815 13.6156 10.521C13.7222 10.7076 13.7757 10.8011 13.7676 10.8777C13.7641 10.9111 13.7535 10.9434 13.7367 10.9724C13.7198 11.0015 13.697 11.0267 13.6698 11.0463" stroke="#808080" stroke-width="3" stroke-linecap="round" stroke-linejoin="round"/>
</g>
</g>
<defs>
<clipPath id="clip0_129_1977">
<rect width="14.5719" height="14.5731" fill="white" transform="translate(0.844238 0.573486)"/>
</clipPath>
<clipPath id="clip1_129_1977">
<rect width="5.72466" height="5.72514" fill="white" transform="translate(9.1709 9.42139)"/>
</clipPath>
</defs>
</svg>
