<svg width="29" height="42" viewBox="0 0 29 42" fill="none" xmlns="http://www.w3.org/2000/svg">
<path d="M5.6 4.64286H18.4V12.6929H20V4.64286C20 4.20714 19.8314 3.78928 19.5314 3.48118C19.2313 3.17309 18.8243 3 18.4 3H5.6C5.17565 3 4.76869 3.17309 4.46863 3.48118C4.16857 3.78928 4 4.20714 4 4.64286V24.3571C4 24.7929 4.16857 25.2107 4.46863 25.5188C4.76869 25.8269 5.17565 26 5.6 26H18.4C18.8243 26 19.2313 25.8269 19.5314 25.5188C19.8314 25.2107 20 24.7929 20 24.3571H5.6V4.64286Z" fill="#FFF6F6"/>
<path d="M22.4775 14.1974C22.3294 14.0629 22.1388 13.9926 21.9439 14.0006C21.749 14.0086 21.5642 14.0943 21.4263 14.2405C21.2883 14.3867 21.2075 14.5827 21.2 14.7893C21.1925 14.996 21.2588 15.198 21.3856 15.3551L24.0031 18.0726H12.7744C12.569 18.0726 12.372 18.1591 12.2268 18.3131C12.0816 18.4671 12 18.6759 12 18.8936C12 19.1114 12.0816 19.3202 12.2268 19.4742C12.372 19.6282 12.569 19.7147 12.7744 19.7147H24.0031L21.3856 22.5554C21.3046 22.629 21.2387 22.7196 21.1923 22.8214C21.1458 22.9233 21.1197 23.0342 21.1155 23.1473C21.1114 23.2604 21.1294 23.3731 21.1683 23.4785C21.2073 23.5838 21.2663 23.6795 21.3418 23.7595C21.4172 23.8395 21.5075 23.9022 21.6069 23.9434C21.7062 23.9847 21.8126 24.0038 21.9192 23.9994C22.0259 23.995 22.1305 23.9673 22.2266 23.918C22.3227 23.8688 22.4081 23.799 22.4775 23.713L27 18.9511L22.4775 14.1974Z" fill="white"/>
<path d="M2.63 39H0.41V38.75C0.63 38.6433 0.85 38.5633 1.07 38.51V32.18L0.31 32.1V31.84C0.483333 31.76 0.7 31.69 0.96 31.63C1.22 31.57 1.47333 31.52 1.72 31.48H1.97V38.51C2.19 38.5633 2.41 38.6433 2.63 38.75V39ZM3.41781 36.5C3.41781 36.08 3.47115 35.71 3.57781 35.39C3.69115 35.0633 3.85115 34.79 4.05781 34.57C4.26448 34.3433 4.51115 34.1733 4.79781 34.06C5.09115 33.94 5.41448 33.88 5.76781 33.88C6.18115 33.88 6.53781 33.9433 6.83781 34.07C7.13781 34.1967 7.38115 34.3767 7.56781 34.61C7.76115 34.8367 7.90115 35.11 7.98781 35.43C8.08115 35.75 8.12781 36.1067 8.12781 36.5C8.12781 37.34 7.91448 37.9867 7.48781 38.44C7.06115 38.8933 6.48781 39.12 5.76781 39.12C5.36781 39.12 5.02115 39.06 4.72781 38.94C4.43448 38.8133 4.19115 38.6367 3.99781 38.41C3.80448 38.1767 3.65781 37.9 3.55781 37.58C3.46448 37.2533 3.41781 36.8933 3.41781 36.5ZM4.37781 36.5C4.37781 36.8 4.40448 37.0833 4.45781 37.35C4.51781 37.6167 4.60781 37.85 4.72781 38.05C4.85448 38.2433 5.01781 38.3967 5.21781 38.51C5.41781 38.6233 5.65781 38.68 5.93781 38.68C6.29781 38.68 6.59115 38.5033 6.81781 38.15C7.05115 37.7967 7.16781 37.2467 7.16781 36.5C7.16781 36.1933 7.13781 35.91 7.07781 35.65C7.02448 35.3833 6.93781 35.1533 6.81781 34.96C6.69781 34.76 6.54448 34.6033 6.35781 34.49C6.17115 34.3767 5.94781 34.32 5.68781 34.32C5.29448 34.32 4.97781 34.4967 4.73781 34.85C4.49781 35.2033 4.37781 35.7533 4.37781 36.5ZM11.0052 33.88C11.3652 33.88 11.6685 33.9167 11.9152 33.99C12.1618 34.0567 12.3685 34.1633 12.5352 34.31C12.9285 34.0433 13.3385 33.85 13.7652 33.73C13.8185 33.8033 13.8552 33.8933 13.8752 34C13.9018 34.1067 13.9152 34.2067 13.9152 34.3L13.7852 34.54H12.7352C12.9018 34.78 12.9852 35.0967 12.9852 35.49C12.9852 35.97 12.8152 36.36 12.4752 36.66C12.1418 36.96 11.6518 37.11 11.0052 37.11C10.8785 37.11 10.7752 37.1067 10.6952 37.1C10.6152 37.0933 10.5252 37.0833 10.4252 37.07C10.3918 37.13 10.3518 37.1967 10.3052 37.27C10.2652 37.3433 10.2452 37.42 10.2452 37.5C10.2452 37.6333 10.3218 37.74 10.4752 37.82C10.6285 37.8933 10.8185 37.96 11.0452 38.02C11.2785 38.08 11.5285 38.1433 11.7952 38.21C12.0685 38.27 12.3218 38.3567 12.5552 38.47C12.7885 38.5767 12.9818 38.72 13.1352 38.9C13.2952 39.0733 13.3785 39.3 13.3852 39.58C13.3918 39.82 13.3352 40.0367 13.2152 40.23C13.1018 40.4233 12.9418 40.5833 12.7352 40.71C12.5285 40.8433 12.2785 40.9433 11.9852 41.01C11.6985 41.0833 11.3818 41.12 11.0352 41.12C10.3085 41.12 9.75849 40.9967 9.38516 40.75C9.01849 40.5033 8.83516 40.1933 8.83516 39.82C8.83516 39.64 8.86182 39.4833 8.91516 39.35C8.97516 39.2167 9.05849 39.1 9.16516 39C9.27182 38.9 9.40516 38.8133 9.56516 38.74C9.72516 38.66 9.90849 38.5867 10.1152 38.52C9.96849 38.4533 9.84516 38.3633 9.74516 38.25C9.65182 38.13 9.60516 37.9867 9.60516 37.82C9.60516 37.6667 9.66849 37.5167 9.79516 37.37C9.92849 37.2167 10.0618 37.0967 10.1952 37.01C9.81516 36.91 9.52182 36.72 9.31516 36.44C9.11516 36.16 9.01516 35.8433 9.01516 35.49C9.01516 35.2633 9.05849 35.0533 9.14516 34.86C9.23182 34.66 9.35849 34.4867 9.52516 34.34C9.69182 34.1933 9.89849 34.08 10.1452 34C10.3918 33.92 10.6785 33.88 11.0052 33.88ZM12.4852 39.81C12.4852 39.5967 12.4118 39.4267 12.2652 39.3C12.1252 39.1733 11.9485 39.07 11.7352 38.99C11.5218 38.91 11.2918 38.8433 11.0452 38.79C10.7985 38.7367 10.5685 38.6767 10.3552 38.61C10.1018 38.7633 9.93516 38.9233 9.85516 39.09C9.77516 39.2633 9.73516 39.44 9.73516 39.62C9.73516 39.9733 9.86182 40.2367 10.1152 40.41C10.3685 40.59 10.7352 40.68 11.2152 40.68C11.4618 40.68 11.6652 40.6567 11.8252 40.61C11.9918 40.5633 12.1218 40.5 12.2152 40.42C12.3152 40.3467 12.3852 40.2567 12.4252 40.15C12.4652 40.0433 12.4852 39.93 12.4852 39.81ZM9.91516 35.49C9.91516 35.65 9.93182 35.8033 9.96516 35.95C10.0052 36.09 10.0652 36.2133 10.1452 36.32C10.2318 36.4267 10.3452 36.5133 10.4852 36.58C10.6252 36.64 10.7985 36.67 11.0052 36.67C11.3918 36.67 11.6685 36.5567 11.8352 36.33C12.0018 36.1033 12.0852 35.8233 12.0852 35.49C12.0852 35.13 12.0018 34.8467 11.8352 34.64C11.6752 34.4267 11.3985 34.32 11.0052 34.32C10.5985 34.32 10.3152 34.4233 10.1552 34.63C9.99516 34.83 9.91516 35.1167 9.91516 35.49ZM14.2088 36.5C14.2088 36.08 14.2622 35.71 14.3688 35.39C14.4822 35.0633 14.6422 34.79 14.8488 34.57C15.0555 34.3433 15.3022 34.1733 15.5888 34.06C15.8822 33.94 16.2055 33.88 16.5588 33.88C16.9722 33.88 17.3288 33.9433 17.6288 34.07C17.9288 34.1967 18.1722 34.3767 18.3588 34.61C18.5522 34.8367 18.6922 35.11 18.7788 35.43C18.8722 35.75 18.9188 36.1067 18.9188 36.5C18.9188 37.34 18.7055 37.9867 18.2788 38.44C17.8522 38.8933 17.2788 39.12 16.5588 39.12C16.1588 39.12 15.8122 39.06 15.5188 38.94C15.2255 38.8133 14.9822 38.6367 14.7888 38.41C14.5955 38.1767 14.4488 37.9 14.3488 37.58C14.2555 37.2533 14.2088 36.8933 14.2088 36.5ZM15.1688 36.5C15.1688 36.8 15.1955 37.0833 15.2488 37.35C15.3088 37.6167 15.3988 37.85 15.5188 38.05C15.6455 38.2433 15.8088 38.3967 16.0088 38.51C16.2088 38.6233 16.4488 38.68 16.7288 38.68C17.0888 38.68 17.3822 38.5033 17.6088 38.15C17.8422 37.7967 17.9588 37.2467 17.9588 36.5C17.9588 36.1933 17.9288 35.91 17.8688 35.65C17.8155 35.3833 17.7288 35.1533 17.6088 34.96C17.4888 34.76 17.3355 34.6033 17.1488 34.49C16.9622 34.3767 16.7388 34.32 16.4788 34.32C16.0855 34.32 15.7688 34.4967 15.5288 34.85C15.2888 35.2033 15.1688 35.7533 15.1688 36.5ZM20.0962 37.02C20.0962 36.6 20.1062 36.19 20.1262 35.79C20.1462 35.3833 20.1562 34.98 20.1562 34.58L19.4962 34.5V34.24C19.7095 34.16 19.9262 34.09 20.1462 34.03C20.3728 33.97 20.5928 33.92 20.8062 33.88H21.0562C21.0562 34.38 21.0462 34.8767 21.0262 35.37C21.0062 35.8633 20.9962 36.3533 20.9962 36.84C20.9962 37.1 21.0095 37.3333 21.0362 37.54C21.0695 37.7467 21.1228 37.92 21.1962 38.06C21.2762 38.2 21.3828 38.31 21.5162 38.39C21.6495 38.4633 21.8195 38.5 22.0262 38.5C22.3262 38.5 22.5762 38.3933 22.7762 38.18C22.9828 37.96 23.1428 37.6767 23.2562 37.33V34.58L22.6062 34.5V34.24C22.8128 34.16 23.0262 34.09 23.2462 34.03C23.4728 33.97 23.6928 33.92 23.9062 33.88H24.1562V38.43L24.8162 38.51V38.72C24.6228 38.8067 24.4262 38.8833 24.2262 38.95C24.0328 39.0167 23.8295 39.0667 23.6162 39.1H23.3662L23.2962 37.91H23.2562C23.2228 38.05 23.1628 38.1933 23.0762 38.34C22.9962 38.48 22.8895 38.61 22.7562 38.73C22.6228 38.8433 22.4695 38.9367 22.2962 39.01C22.1295 39.0833 21.9462 39.12 21.7462 39.12C21.4795 39.12 21.2428 39.0867 21.0362 39.02C20.8362 38.96 20.6662 38.85 20.5262 38.69C20.3862 38.53 20.2795 38.3167 20.2062 38.05C20.1328 37.7767 20.0962 37.4333 20.0962 37.02ZM25.2184 34.24C25.4717 34.08 25.7384 33.9667 26.0184 33.9V33.05C26.105 32.9767 26.205 32.9133 26.3184 32.86C26.4384 32.8 26.555 32.7433 26.6684 32.69H26.9184V34H28.4184V34.5H26.9184V37.4C26.9184 37.8 26.9817 38.0833 27.1084 38.25C27.235 38.4167 27.425 38.5 27.6784 38.5C27.7984 38.5 27.9484 38.4933 28.1284 38.48C28.3084 38.46 28.4617 38.4267 28.5884 38.38L28.6584 38.53C28.605 38.59 28.5284 38.6533 28.4284 38.72C28.335 38.7867 28.225 38.85 28.0984 38.91C27.9784 38.97 27.845 39.02 27.6984 39.06C27.5517 39.1 27.4017 39.12 27.2484 39.12C26.8484 39.12 26.5417 39.0067 26.3284 38.78C26.1217 38.5533 26.0184 38.1867 26.0184 37.68V34.5H25.2184V34.24Z" fill="white"/>
</svg>
