<svg width="16" height="16" viewBox="0 0 16 16" fill="none" xmlns="http://www.w3.org/2000/svg">
<g clip-path="url(#clip0_129_1638)">
<path d="M9.0843 9.2278V10.4965C8.70446 10.3623 8.29578 10.2892 7.86998 10.2892C5.85803 10.2892 4.22702 11.9204 4.22702 13.9325H3.0127C3.0127 11.2496 5.18738 9.07478 7.86998 9.07478C8.28929 9.07478 8.69621 9.12791 9.0843 9.2278ZM7.86998 8.46757C5.85724 8.46757 4.22702 6.83721 4.22702 4.8243C4.22702 2.81139 5.85724 1.18103 7.86998 1.18103C9.88272 1.18103 11.5129 2.81139 11.5129 4.8243C11.5129 6.83721 9.88272 8.46757 7.86998 8.46757ZM7.86998 7.25315C9.21181 7.25315 10.2986 6.16624 10.2986 4.8243C10.2986 3.48236 9.21181 2.39545 7.86998 2.39545C6.52816 2.39545 5.44134 3.48236 5.44134 4.8243C5.44134 6.16624 6.52816 7.25315 7.86998 7.25315Z" fill="#808080"/>
<path d="M15.4358 13.0848C16.0216 12.499 16.0216 11.5493 15.4358 10.9635L5.88985 1.41757C5.30407 0.831781 4.35432 0.831781 3.76853 1.41757C3.18275 2.00336 3.18275 2.9531 3.76853 3.53889L12.2538 12.0242L3.76853 20.5095C3.18275 21.0952 3.18275 22.045 3.76853 22.6308C4.35432 23.2166 5.30407 23.2166 5.88985 22.6308L15.4358 13.0848ZM9.1709 13.5242L14.3751 13.5242V10.5242L9.1709 10.5242V13.5242Z" fill="#808080"/>
</g>
<defs>
<clipPath id="clip0_129_1638">
<rect width="14.5719" height="14.5731" fill="white" transform="translate(0.583984 0.573853)"/>
</clipPath>
</defs>
</svg>
